<?xml version="1.0" encoding="UTF-8"?>
<svg width="54px" height="88px" viewBox="0 0 54 88" version="1.1" xmlns="http://www.w3.org/2000/svg" xmlns:xlink="http://www.w3.org/1999/xlink">
    <title>Page 1</title>
    <defs>
        <polygon id="path-1" points="3.45751486e-05 0 53.8606772 0 53.8606772 33.3183484 3.45751486e-05 33.3183484"></polygon>
        <polygon id="path-3" points="0.124206938 0.1131562 41.7823574 0.1131562 41.7823574 57.6180354 0.124206938 57.6180354"></polygon>
    </defs>
    <g id="Page-1" stroke="none" stroke-width="1" fill="none" fill-rule="evenodd">
        <g id="Home" transform="translate(-96.000000, -60.000000)">
            <g id="Group" transform="translate(96.000000, 60.000000)">
                <g id="Group-3">
                    <mask id="mask-2" fill="white">
                        <use xlink:href="#path-1"></use>
                    </mask>
                    <g id="Clip-2"></g>
                    <path d="M53.8607339,24.1872512 C53.8607339,23.3825473 53.3877732,22.710139 52.7146866,22.3774126 L52.7146866,9.8929328 C52.8671906,9.83530186 52.9621512,9.69094062 52.9604504,9.52968755 C52.9604504,9.36843447 52.8554268,9.2257766 52.7078835,9.17311385 L26.9888598,0.087865891 C26.6598992,-0.0293832624 26.3006079,-0.0293832624 25.9699465,0.087865891 L0.254324409,9.17481723 C0.103379528,9.22747998 0.00175748031,9.37013785 3.45751486e-05,9.53139092 C-0.00164409449,9.692644 0.0948755906,9.83700524 0.244119685,9.89477813 L25.9241669,19.905244 C26.2818992,20.0427917 26.6769071,20.0427917 27.0346394,19.905244 L50.9413323,10.5806715 L50.9413323,22.3757092 C50.2700882,22.7067322 49.7971276,23.3842506 49.7971276,24.1839864 C49.7971276,25.0192092 50.305663,25.7442802 51.0330331,26.0550047 C50.305663,27.4930811 49.7971276,30.4438988 49.7971276,31.2860771 C49.7971276,32.408319 50.707474,33.3183484 51.8280094,33.3183484 C52.9469858,33.3183484 53.8573323,32.408319 53.8573323,31.2860771 C53.8573323,30.4438988 53.3470961,27.4930811 52.6214268,26.0550047 C53.3503559,25.747687 53.8607339,25.0226159 53.8607339,24.1872512" id="Fill-1" fill="#34495E" mask="url(#mask-2)"></path>
                </g>
                <path d="M26.6205715,31.8415459 C36.7852122,31.5702388 44.8698265,27.2434123 44.8698265,21.9174263 C44.8698265,21.3866448 44.8698265,18.0219301 44.8732394,15.1626409 L27.1734629,21.9881408 C26.8145386,22.1263299 26.4182144,22.1263299 26.0592901,21.9881408 L8.36619718,15.1626409 C8.36804584,18.0200988 8.36961009,21.3832641 8.36961009,21.9174263 C8.36961009,27.2383411 16.4540822,31.5702388 26.6205715,31.8415459" id="Fill-4" fill="#34495E"></path>
                <g id="Group-8" transform="translate(5.323944, 29.567150)">
                    <mask id="mask-4" fill="white">
                        <use xlink:href="#path-3"></use>
                    </mask>
                    <g id="Clip-7"></g>
                    <path d="M37.8149145,28.843195 C36.3769744,27.3288244 34.4794587,25.8987729 32.1225087,24.5547268 C29.7641456,23.2120861 26.8614143,21.8825148 23.4113472,20.5664345 C22.2037601,20.1673242 21.0531254,19.7384212 19.9614214,19.279866 C18.8684456,18.8229971 17.905061,18.323266 17.0719744,17.7791269 C16.2378984,17.2362526 15.576234,16.6360413 15.0885355,15.9779309 C14.5992826,15.3213664 14.3552214,14.5922874 14.3552214,13.7909752 C14.3552214,12.0192908 15.0304527,10.6603484 16.3820457,9.71681792 C17.7323669,8.77342799 19.6164571,8.30180329 22.0313486,8.30180329 C23.3534056,8.30180329 24.6471985,8.53087011 25.9125858,8.98787951 C27.1767012,9.44629422 28.2977999,9.93140997 29.2764471,10.4460374 C30.42581,11.0757604 31.5469087,11.7619771 32.6400258,12.5044066 L40.0573945,3.24153446 C39.0790299,2.38386892 37.8581587,1.54081869 36.3919544,0.711400046 C36.0279117,0.505802032 35.6575097,0.306527948 35.2811721,0.1131562 C31.9744044,2.36756724 26.8464343,3.86338765 21.0331991,4.01909688 C15.9524302,3.8830621 11.3955378,2.72226948 8.11986073,0.926975818 C7.93868733,1.08099866 7.75864451,1.2362863 7.5848198,1.39747626 C5.8881211,2.97072969 4.57948958,4.82813841 3.66047978,6.97251305 C2.73991545,9.11660663 2.28033988,11.418939 2.28033988,13.8766995 C2.28033988,16.2781068 2.69681257,18.3940941 3.53102983,20.2233964 C4.36383389,22.0539636 5.54315679,23.6837108 7.06730267,25.1122165 C8.59003535,26.5421275 10.3877785,27.7858338 12.4577057,28.843195 C14.5276329,29.9016805 16.7702542,30.8880732 19.1852871,31.8022325 C21.2552143,32.6035448 22.9800358,33.3605896 24.3601757,34.0749127 C25.740033,34.7905006 26.8183114,35.462102 27.5944458,36.0904196 C28.3707215,36.7204237 28.9165028,37.3058791 29.2330616,37.8487535 C29.5486312,38.392752 29.7074759,38.8926236 29.7074759,39.3497735 C29.7074759,40.5503367 29.4488586,41.5514852 28.9313415,42.3515327 C28.4139657,43.1528449 27.7521599,43.796059 26.9476201,44.2813152 C26.141667,44.7675553 25.2509213,45.1254897 24.27397,45.3532918 C23.2954641,45.5824991 22.3185127,45.6963299 21.34142,45.6963299 C20.1905026,45.6963299 18.9830569,45.4685278 17.7189414,45.0102537 C16.4535541,44.5533848 15.245967,43.9957546 14.0966042,43.3379253 C12.9456868,42.6812202 11.9254912,41.9950035 11.0346043,41.2794156 C10.1425867,40.5650925 9.49561967,39.9499848 9.094127,39.4353574 L0.124206938,47.6689747 C0.583782499,48.1836021 1.41785844,49.0131613 2.62544552,50.1562469 C3.83289127,51.3008783 5.21288985,52.358099 6.76544124,53.3297358 L6.67909417,53.3297358 C8.86349129,54.7018883 11.1923184,55.7606548 13.6652928,56.5030843 C16.136854,57.2455137 18.6960341,57.6180635 21.34142,57.6180635 C24.27397,57.6180635 26.9907229,57.1462983 29.4918202,56.2029084 C31.9932001,55.2593779 34.1494744,53.9729499 35.960643,52.3434837 C37.7716703,50.7137365 39.1949131,48.7840944 40.2299473,46.5539954 C41.2648403,44.3241774 41.7823574,41.9520008 41.7823574,39.4353574 C41.7823574,37.3771288 41.480496,35.4765768 40.8769144,33.731734 C40.2730502,31.9884371 39.2515827,30.3586899 37.8149145,28.843195" id="Fill-6" fill="#34495E" mask="url(#mask-4)"></path>
                </g>
            </g>
        </g>
    </g>
</svg>